<?xml version="1.0" encoding="utf-8"?>
<!-- Generator: Adobe Illustrator 26.3.1, SVG Export Plug-In . SVG Version: 6.00 Build 0)  -->
<svg  width='150px'  version="1.1" id="LogoVector" xmlns="http://www.w3.org/2000/svg" xmlns:xlink="http://www.w3.org/1999/xlink" x="0px" y="0px"
	 viewBox="0 0 382.9 86.2" style="enable-background:new 0 0 382.9 86.2;" xml:space="preserve">
<style type="text/css">
	.st0{fill:none;stroke:#6d6767;;stroke-width:3;stroke-linecap:round;stroke-linejoin:round;}
	.st1{fill:none;stroke:#6d6767;;stroke-width:3;stroke-linecap:round;stroke-linejoin:round;stroke-dasharray:2,4;}
	.st2{fill:none;stroke:#6d6767;stroke-width:3;stroke-linecap:round;stroke-linejoin:round;stroke-dasharray:3,6;}
	.st3{fill:none;stroke:#6d6767;;stroke-width:3;stroke-linecap:round;stroke-linejoin:round;stroke-dasharray:0,8;}
	.st4{fill:none;stroke:#6d6767;;stroke-width:3;stroke-linecap:round;stroke-linejoin:round;stroke-dasharray:11.3467,11.3467;}
	.st5{fill:none;stroke:#6d6767;;stroke-width:3;stroke-linecap:round;stroke-linejoin:round;stroke-dasharray:6.75;}
	.st6{fill:none;stroke:#6d6767;;stroke-width:3;stroke-linecap:round;stroke-linejoin:round;stroke-dasharray:12.66,12.66;}
	.st7{fill:none;stroke:#6d6767;;stroke-width:3;stroke-linecap:round;stroke-linejoin:round;stroke-dasharray:7.81;}
	.st8{fill:#6d6767;}
	.st9{font-family:'Inter-Thin';}
	.st10{font-size:72px;}
</style>



	
<g id="SPLINE">
	<g>
		<path class="st0" d="M233.1,14.5v56.7"/>
		<path class="st0" d="M233.1,71.3h42"/>
		<path class="st0" d="M275,71.3v-6.8"/>
		<path class="st0" d="M275,64.5h-34.4"/>
		<path class="st0" d="M240.6,64.5V45.3"/>
		<path class="st0" d="M240.6,45.3h31.3"/>
		<path class="st0" d="M271.9,45.3v-6.6"/>
		<path class="st0" d="M271.9,38.7h-31.3"/>
		<path class="st0" d="M240.6,38.7V21.5"/>
		<path class="st0" d="M240.6,21.5h33.9"/>
		<path class="st0" d="M274.5,21.5v-6.9"/>
		<path class="st0" d="M274.5,14.5h-41.4"/>
		<path class="st0" d="M199.1,13c-8.4,0-15,2.9-19.8,8.7c-4.4,5.4-6.6,12.2-6.6,20.6c0,11,2.9,19.2,8.8,24.4c4.5,4,10,6,16.6,6
			c7.6,0,13.7-2.4,18.2-7.3c3.8-4,6-9,6.6-15"/>
		<path class="st0" d="M223,50.4h-7.5"/>
		<path class="st0" d="M215.5,50.4c-0.8,3.7-1.9,6.7-3.5,9c-3,4.3-7.3,6.5-12.9,6.5c-6.1,0-10.8-2.1-13.9-6.2s-4.6-9.5-4.6-16.2
			c0-8.1,1.7-14.1,5.1-18.1c3.4-3.9,7.9-5.9,13.5-5.9c4.6,0,8.1,1.1,10.7,3.2c2.5,2.1,4.2,5,5.1,8.7"/>
		<path class="st0" d="M215,31.6h7.5"/>
		<path class="st0" d="M222.5,31.6c-0.4-4.8-2.6-9.1-6.6-12.9s-9.5-5.7-16.7-5.7"/>
		<path class="st1" d="M151.6,48c-2.9-8.4-5.7-16.7-8.6-25.1"/>
		<path class="st1" d="M143,23c-3.1,8.4-6.1,16.7-9.2,25.1"/>
		<path class="st1" d="M133.8,48h17.8"/>
		<path class="st1" d="M139,14.5c-7.1,18.9-14.2,37.8-21.4,56.7"/>
		<path class="st1" d="M117.6,71.3h7.9"/>
		<path class="st1" d="M125.5,71.3c2-5.7,4.1-11.3,6.1-17"/>
		<path class="st1" d="M131.6,54.3h22.4"/>
		<path class="st1" d="M154.1,54.3c1.9,5.7,3.8,11.3,5.8,17"/>
		<path class="st1" d="M159.8,71.3h8.4"/>
		<path class="st1" d="M168.2,71.3c-6.9-18.9-13.7-37.8-20.6-56.7"/>
		<path class="st1" d="M147.7,14.5H139"/>
		<path class="st2" d="M91.7,40.5c3.6,0,6.5-0.7,8.6-2.2c2.1-1.5,3.1-4,3.1-7.8c0-4.1-1.5-6.8-4.4-8.3c-1.6-0.8-3.7-1.1-6.3-1.1"/>
		<path class="st2" d="M92.7,21.1H74"/>
		<path class="st2" d="M74,21.1v19.4"/>
		<path class="st2" d="M74,40.5h17.8"/>
		<line class="st2" x1="92.5" y1="14.5" x2="66.3" y2="14.5"/>
		<line class="st2" x1="66.3" y1="14.5" x2="66.3" y2="71.3"/>
		<line class="st2" x1="66.3" y1="71.3" x2="74" y2="71.3"/>
		<line class="st2" x1="74" y1="71.3" x2="74" y2="46.9"/>
		<line class="st2" x1="74" y1="46.9" x2="91.5" y2="46.9"/>
		<path class="st2" d="M91.5,46.9c3.1,0,5.4,0.3,6.9,1c2.6,1.3,3.9,3.8,4.1,7.5"/>
		<path class="st2" d="M102.5,55.4c0.2,3.2,0.3,6.3,0.5,9.5"/>
		<path class="st2" d="M103,64.9c0.1,2.2,0.2,3.7,0.4,4.5c0.2,0.8,0.4,1.4,0.6,1.9"/>
		<path class="st2" d="M104,71.3h9.4"/>
		<path class="st3" d="M113.4,71.3V70"/>
		<path class="st2" d="M113.4,70c-1.2-0.5-2-1.7-2.5-3.5c-0.3-1.1-0.5-2.7-0.5-4.8"/>
		<path class="st2" d="M110.4,61.7c-0.1-2.5-0.2-5.1-0.3-7.6"/>
		<path class="st2" d="M110.1,54.1c-0.1-3.3-0.8-5.7-1.9-7.1s-2.8-2.7-5-3.6"/>
		<path class="st2" d="M103.2,43.4c2.5-1.3,4.5-3,5.9-5.2c1.4-2.2,2.1-5,2.1-8.4c0-6.5-2.7-11-8-13.4c-2.8-1.3-6.4-1.9-10.7-1.9"/>
		<g>
			<g>
				<line class="st0" x1="58.3" y1="14.5" x2="52.3" y2="14.5"/>
				<line class="st4" x1="41" y1="14.5" x2="24" y2="14.5"/>
				<line class="st0" x1="18.3" y1="14.5" x2="12.3" y2="14.5"/>
			</g>
		</g>
		<g>
			<line class="st5" x1="12.3" y1="14.5" x2="12.3" y2="21.3"/>
		</g>
		<g>
			<g>
				<line class="st0" x1="12.3" y1="21.3" x2="18.3" y2="21.3"/>
				<line class="st0" x1="25.4" y1="21.3" x2="31.4" y2="21.3"/>
			</g>
		</g>
		<g>
			<g>
				<line class="st0" x1="31.4" y1="21.3" x2="31.4" y2="27.3"/>
				<line class="st6" x1="31.4" y1="40" x2="31.4" y2="58.9"/>
				<line class="st0" x1="31.4" y1="65.3" x2="31.4" y2="71.3"/>
			</g>
		</g>
		<g>
			<line class="st7" x1="31.4" y1="71.3" x2="39.2" y2="71.3"/>
		</g>
		<g>
			<g>
				<line class="st0" x1="39.2" y1="71.3" x2="39.2" y2="65.3"/>
				<line class="st6" x1="39.2" y1="52.6" x2="39.2" y2="33.6"/>
				<line class="st0" x1="39.2" y1="27.3" x2="39.2" y2="21.3"/>
			</g>
		</g>
		<g>
			<g>
				<line class="st0" x1="39.2" y1="21.3" x2="45.2" y2="21.3"/>
				<line class="st0" x1="52.3" y1="21.3" x2="58.3" y2="21.3"/>
			</g>
		</g>
		<g>
			<line class="st5" x1="58.3" y1="21.3" x2="58.3" y2="14.5"/>
		</g>
	</g>
</g>
<text transform="matrix(1 0 0 1 279.29 72.74)" class="st8 st9 st10">lab</text>


 <style>

		
      
    </style>
</svg>
