<?xml version="1.0" encoding="UTF-8"?><svg  width='120px' id="LogoVector" xmlns="http://www.w3.org/2000/svg" viewBox="0 0 382.9 86.2"><g id="SPLINE"><g><path d="M233.1,14.5v56.7" style="fill:none; stroke:#000; stroke-linecap:round; stroke-linejoin:round; stroke-width:3px;"/><path d="M233.1,71.3h42" style="fill:none; stroke:#000; stroke-linecap:round; stroke-linejoin:round; stroke-width:3px;"/><path d="M275,71.3v-6.8" style="fill:none; stroke:#000; stroke-linecap:round; stroke-linejoin:round; stroke-width:3px;"/><path d="M275,64.5h-34.4" style="fill:none; stroke:#000; stroke-linecap:round; stroke-linejoin:round; stroke-width:3px;"/><path d="M240.6,64.5v-19.2" style="fill:none; stroke:#000; stroke-linecap:round; stroke-linejoin:round; stroke-width:3px;"/><path d="M240.6,45.3h31.3" style="fill:none; stroke:#000; stroke-linecap:round; stroke-linejoin:round; stroke-width:3px;"/><path d="M271.9,45.3v-6.6" style="fill:none; stroke:#000; stroke-linecap:round; stroke-linejoin:round; stroke-width:3px;"/><path d="M271.9,38.7h-31.3" style="fill:none; stroke:#000; stroke-linecap:round; stroke-linejoin:round; stroke-width:3px;"/><path d="M240.6,38.7V21.5" style="fill:none; stroke:#000; stroke-linecap:round; stroke-linejoin:round; stroke-width:3px;"/><path d="M240.6,21.5h33.9" style="fill:none; stroke:#000; stroke-linecap:round; stroke-linejoin:round; stroke-width:3px;"/><path d="M274.5,21.5v-6.9" style="fill:none; stroke:#000; stroke-linecap:round; stroke-linejoin:round; stroke-width:3px;"/><path d="M274.5,14.5h-41.4" style="fill:none; stroke:#000; stroke-linecap:round; stroke-linejoin:round; stroke-width:3px;"/><path d="M199.1,13c-8.4,0-15,2.9-19.8,8.7-4.4,5.4-6.6,12.2-6.6,20.6,0,11,2.9,19.2,8.8,24.4,4.5,4,10,6,16.6,6,7.6,0,13.7-2.4,18.2-7.3,3.8-4,6-9,6.6-15" style="fill:none; stroke:#000; stroke-linecap:round; stroke-linejoin:round; stroke-width:3px;"/><path d="M223,50.4h-7.5" style="fill:none; stroke:#000; stroke-linecap:round; stroke-linejoin:round; stroke-width:3px;"/><path d="M215.5,50.4c-.8,3.7-1.9,6.7-3.5,9-3,4.3-7.3,6.5-12.9,6.5-6.1,0-10.8-2.1-13.9-6.2s-4.6-9.5-4.6-16.2c0-8.1,1.7-14.1,5.1-18.1,3.4-3.9,7.9-5.9,13.5-5.9,4.6,0,8.1,1.1,10.7,3.2,2.5,2.1,4.2,5,5.1,8.7" style="fill:none; stroke:#000; stroke-linecap:round; stroke-linejoin:round; stroke-width:3px;"/><path d="M215,31.6h7.5" style="fill:none; stroke:#000; stroke-linecap:round; stroke-linejoin:round; stroke-width:3px;"/><path d="M222.5,31.6c-.4-4.8-2.6-9.1-6.6-12.9s-9.5-5.7-16.7-5.7" style="fill:none; stroke:#000; stroke-linecap:round; stroke-linejoin:round; stroke-width:3px;"/><path d="M151.6,48c-2.9-8.4-5.7-16.7-8.6-25.1" style="fill:none; stroke:#000; stroke-dasharray:0 0 2 4; stroke-linecap:round; stroke-linejoin:round; stroke-width:3px;"/><path d="M143,23c-3.1,8.4-6.1,16.7-9.2,25.1" style="fill:none; stroke:#000; stroke-dasharray:0 0 2 4; stroke-linecap:round; stroke-linejoin:round; stroke-width:3px;"/><path d="M133.8,48h17.8" style="fill:none; stroke:#000; stroke-dasharray:0 0 2 4; stroke-linecap:round; stroke-linejoin:round; stroke-width:3px;"/><path d="M139,14.5c-7.1,18.9-14.2,37.8-21.4,56.7" style="fill:none; stroke:#000; stroke-dasharray:0 0 2 4; stroke-linecap:round; stroke-linejoin:round; stroke-width:3px;"/><path d="M117.6,71.3h7.9" style="fill:none; stroke:#000; stroke-dasharray:0 0 2 4; stroke-linecap:round; stroke-linejoin:round; stroke-width:3px;"/><path d="M125.5,71.3c2-5.7,4.1-11.3,6.1-17" style="fill:none; stroke:#000; stroke-dasharray:0 0 2 4; stroke-linecap:round; stroke-linejoin:round; stroke-width:3px;"/><path d="M131.6,54.3h22.4" style="fill:none; stroke:#000; stroke-dasharray:0 0 2 4; stroke-linecap:round; stroke-linejoin:round; stroke-width:3px;"/><path d="M154.1,54.3c1.9,5.7,3.8,11.3,5.8,17" style="fill:none; stroke:#000; stroke-dasharray:0 0 2 4; stroke-linecap:round; stroke-linejoin:round; stroke-width:3px;"/><path d="M159.8,71.3h8.4" style="fill:none; stroke:#000; stroke-dasharray:0 0 2 4; stroke-linecap:round; stroke-linejoin:round; stroke-width:3px;"/><path d="M168.2,71.3c-6.9-18.9-13.7-37.8-20.6-56.7" style="fill:none; stroke:#000; stroke-dasharray:0 0 2 4; stroke-linecap:round; stroke-linejoin:round; stroke-width:3px;"/><path d="M147.7,14.5h-8.7" style="fill:none; stroke:#000; stroke-dasharray:0 0 2 4; stroke-linecap:round; stroke-linejoin:round; stroke-width:3px;"/><path d="M91.7,40.5c3.6,0,6.5-.7,8.6-2.2s3.1-4,3.1-7.8c0-4.1-1.5-6.8-4.4-8.3-1.6-.8-3.7-1.1-6.3-1.1" style="fill:none; stroke:#000; stroke-dasharray:0 0 3 6; stroke-linecap:round; stroke-linejoin:round; stroke-width:3px;"/><path d="M92.7,21.1h-18.7" style="fill:none; stroke:#000; stroke-dasharray:0 0 3 6; stroke-linecap:round; stroke-linejoin:round; stroke-width:3px;"/><path d="M74,21.1v19.4" style="fill:none; stroke:#000; stroke-dasharray:0 0 3 6; stroke-linecap:round; stroke-linejoin:round; stroke-width:3px;"/><path d="M74,40.5h17.8" style="fill:none; stroke:#000; stroke-dasharray:0 0 3 6; stroke-linecap:round; stroke-linejoin:round; stroke-width:3px;"/><line x1="92.5" y1="14.5" x2="66.3" y2="14.5" style="fill:none; stroke:#000; stroke-dasharray:0 0 3 6; stroke-linecap:round; stroke-linejoin:round; stroke-width:3px;"/><line x1="66.3" y1="14.5" x2="66.3" y2="71.3" style="fill:none; stroke:#000; stroke-dasharray:0 0 3 6; stroke-linecap:round; stroke-linejoin:round; stroke-width:3px;"/><line x1="66.3" y1="71.3" x2="74" y2="71.3" style="fill:none; stroke:#000; stroke-dasharray:0 0 3 6; stroke-linecap:round; stroke-linejoin:round; stroke-width:3px;"/><line x1="74" y1="71.3" x2="74" y2="46.9" style="fill:none; stroke:#000; stroke-dasharray:0 0 3 6; stroke-linecap:round; stroke-linejoin:round; stroke-width:3px;"/><line x1="74" y1="46.9" x2="91.5" y2="46.9" style="fill:none; stroke:#000; stroke-dasharray:0 0 3 6; stroke-linecap:round; stroke-linejoin:round; stroke-width:3px;"/><path d="M91.5,46.9c3.1,0,5.4,.3,6.9,1,2.6,1.3,3.9,3.8,4.1,7.5" style="fill:none; stroke:#000; stroke-dasharray:0 0 3 6; stroke-linecap:round; stroke-linejoin:round; stroke-width:3px;"/><path d="M102.5,55.4c.2,3.2,.3,6.3,.5,9.5" style="fill:none; stroke:#000; stroke-dasharray:0 0 3 6; stroke-linecap:round; stroke-linejoin:round; stroke-width:3px;"/><path d="M103,64.9c.1,2.2,.2,3.7,.4,4.5,.2,.8,.4,1.4,.6,1.9" style="fill:none; stroke:#000; stroke-dasharray:0 0 3 6; stroke-linecap:round; stroke-linejoin:round; stroke-width:3px;"/><path d="M104,71.3h9.4" style="fill:none; stroke:#000; stroke-dasharray:0 0 3 6; stroke-linecap:round; stroke-linejoin:round; stroke-width:3px;"/><path d="M113.4,71.3v-1.3" style="fill:none; stroke:#000; stroke-dasharray:0 0 0 8; stroke-linecap:round; stroke-linejoin:round; stroke-width:3px;"/><path d="M113.4,70c-1.2-.5-2-1.7-2.5-3.5-.3-1.1-.5-2.7-.5-4.8" style="fill:none; stroke:#000; stroke-dasharray:0 0 3 6; stroke-linecap:round; stroke-linejoin:round; stroke-width:3px;"/><path d="M110.4,61.7c-.1-2.5-.2-5.1-.3-7.6" style="fill:none; stroke:#000; stroke-dasharray:0 0 3 6; stroke-linecap:round; stroke-linejoin:round; stroke-width:3px;"/><path d="M110.1,54.1c-.1-3.3-.8-5.7-1.9-7.1s-2.8-2.7-5-3.6" style="fill:none; stroke:#000; stroke-dasharray:0 0 3 6; stroke-linecap:round; stroke-linejoin:round; stroke-width:3px;"/><path d="M103.2,43.4c2.5-1.3,4.5-3,5.9-5.2s2.1-5,2.1-8.4c0-6.5-2.7-11-8-13.4-2.8-1.3-6.4-1.9-10.7-1.9" style="fill:none; stroke:#000; stroke-dasharray:0 0 3 6; stroke-linecap:round; stroke-linejoin:round; stroke-width:3px;"/><g><line x1="58.3" y1="14.5" x2="52.3" y2="14.5" style="fill:none; stroke:#000; stroke-linecap:round; stroke-linejoin:round; stroke-width:3px;"/><line x1="41" y1="14.5" x2="24" y2="14.5" style="fill:none; stroke:#000; stroke-dasharray:0 0 11.35 11.35; stroke-linecap:round; stroke-linejoin:round; stroke-width:3px;"/><line x1="18.3" y1="14.5" x2="12.3" y2="14.5" style="fill:none; stroke:#000; stroke-linecap:round; stroke-linejoin:round; stroke-width:3px;"/></g><line x1="12.3" y1="14.5" x2="12.3" y2="21.3" style="fill:none; stroke:#000; stroke-dasharray:0 6.75; stroke-linecap:round; stroke-linejoin:round; stroke-width:3px;"/><g><line x1="12.3" y1="21.3" x2="18.3" y2="21.3" style="fill:none; stroke:#000; stroke-linecap:round; stroke-linejoin:round; stroke-width:3px;"/><line x1="25.4" y1="21.3" x2="31.4" y2="21.3" style="fill:none; stroke:#000; stroke-linecap:round; stroke-linejoin:round; stroke-width:3px;"/></g><g><line x1="31.4" y1="21.3" x2="31.4" y2="27.3" style="fill:none; stroke:#000; stroke-linecap:round; stroke-linejoin:round; stroke-width:3px;"/><line x1="31.4" y1="40" x2="31.4" y2="58.9" style="fill:none; stroke:#000; stroke-dasharray:0 0 12.66 12.66; stroke-linecap:round; stroke-linejoin:round; stroke-width:3px;"/><line x1="31.4" y1="65.3" x2="31.4" y2="71.3" style="fill:none; stroke:#000; stroke-linecap:round; stroke-linejoin:round; stroke-width:3px;"/></g><line x1="31.4" y1="71.3" x2="39.2" y2="71.3" style="fill:none; stroke:#000; stroke-dasharray:0 7.81; stroke-linecap:round; stroke-linejoin:round; stroke-width:3px;"/><g><line x1="39.2" y1="71.3" x2="39.2" y2="65.3" style="fill:none; stroke:#000; stroke-linecap:round; stroke-linejoin:round; stroke-width:3px;"/><line x1="39.2" y1="52.6" x2="39.2" y2="33.6" style="fill:none; stroke:#000; stroke-dasharray:0 0 12.66 12.66; stroke-linecap:round; stroke-linejoin:round; stroke-width:3px;"/><line x1="39.2" y1="27.3" x2="39.2" y2="21.3" style="fill:none; stroke:#000; stroke-linecap:round; stroke-linejoin:round; stroke-width:3px;"/></g><g><line x1="39.2" y1="21.3" x2="45.2" y2="21.3" style="fill:none; stroke:#000; stroke-linecap:round; stroke-linejoin:round; stroke-width:3px;"/><line x1="52.3" y1="21.3" x2="58.3" y2="21.3" style="fill:none; stroke:#000; stroke-linecap:round; stroke-linejoin:round; stroke-width:3px;"/></g><line x1="58.3" y1="21.3" x2="58.3" y2="14.5" style="fill:none; stroke:#000; stroke-dasharray:0 6.75; stroke-linecap:round; stroke-linejoin:round; stroke-width:3px;"/></g></g><g style="isolation:isolate;"><path d="M287.88,20.38v52.36h-1.64V20.38h1.64Z" style="fill:#231f20;"/><path d="M311.61,73.56c-2.15,0-4.13-.44-5.95-1.33-1.81-.89-3.27-2.18-4.37-3.89-1.1-1.7-1.65-3.78-1.65-6.24,0-1.33,.21-2.58,.64-3.75,.43-1.17,1.18-2.23,2.25-3.18,1.07-.95,2.58-1.77,4.51-2.45s4.41-1.2,7.43-1.56c1.81-.21,3.51-.44,5.11-.72,1.6-.27,2.91-.68,3.91-1.23s1.51-1.33,1.51-2.35v-2.35c0-3.02-1.01-5.44-3.04-7.27-2.03-1.83-4.73-2.75-8.11-2.75-2.76,0-5.17,.61-7.24,1.83s-3.5,2.93-4.32,5.13l-1.54-.61c.61-1.64,1.56-3.05,2.84-4.24s2.8-2.11,4.55-2.76c1.76-.65,3.66-.97,5.7-.97s3.78,.29,5.36,.88c1.58,.59,2.92,1.41,4.03,2.45,1.11,1.05,1.95,2.28,2.53,3.69,.58,1.42,.87,2.96,.87,4.63v28.23h-1.64v-7.98h-.2c-.82,1.77-1.88,3.32-3.18,4.64-1.3,1.32-2.8,2.34-4.5,3.07-1.7,.72-3.53,1.09-5.51,1.09Zm0-1.64c2.49,0,4.75-.67,6.78-2.01,2.03-1.34,3.64-3.2,4.83-5.6,1.19-2.39,1.79-5.18,1.79-8.35v-5.93c-.48,.36-1.05,.67-1.73,.95-.67,.27-1.43,.52-2.28,.73-.84,.21-1.76,.4-2.75,.55-.99,.15-2.05,.3-3.17,.43-3.51,.41-6.27,1.03-8.28,1.87-2.01,.83-3.44,1.88-4.27,3.14-.83,1.26-1.25,2.73-1.25,4.4,0,2.97,.99,5.34,2.98,7.13,1.99,1.79,4.44,2.68,7.35,2.68Z" style="fill:#231f20;"/><path d="M341.98,72.74V20.38h1.64v23.11h.2c.68-2.18,1.67-4.07,2.97-5.66,1.29-1.59,2.82-2.82,4.58-3.68,1.76-.86,3.67-1.29,5.75-1.29,3.07,0,5.74,.9,8,2.68,2.27,1.79,4.02,4.22,5.27,7.29s1.87,6.53,1.87,10.38-.62,7.34-1.85,10.41-2.98,5.49-5.24,7.27-4.94,2.67-8.04,2.67c-2.1,0-4.02-.43-5.77-1.3-1.75-.87-3.26-2.1-4.54-3.7-1.28-1.59-2.28-3.47-2.99-5.64h-.2v9.82h-1.64Zm1.64-19.53c0,3.55,.54,6.73,1.64,9.55,1.09,2.82,2.65,5.05,4.67,6.7,2.02,1.64,4.42,2.47,7.2,2.47s5.18-.82,7.2-2.47c2.02-1.65,3.58-3.88,4.67-6.7s1.64-6,1.64-9.55-.55-6.73-1.65-9.55c-1.1-2.82-2.66-5.05-4.68-6.7-2.02-1.65-4.41-2.47-7.17-2.47s-5.15,.82-7.17,2.47c-2.02,1.64-3.58,3.88-4.68,6.7-1.1,2.82-1.65,6-1.65,9.55Z" style="fill:#231f20;"/></g></svg>